<?xml version="1.0" encoding="UTF-8"?>
<svg xmlns="http://www.w3.org/2000/svg" id="outline" viewBox="0 0 512 512" width="512" height="512"><path d="M24,456H46.13086a23.95664,23.95664,0,0,0,35.73828,0h28.26172a23.95664,23.95664,0,0,0,35.73828,0H216a8.00008,8.00008,0,0,0,8-8V312a8.00008,8.00008,0,0,0-8-8H128a8.00008,8.00008,0,0,0-8,8v24H80a7.99979,7.99979,0,0,0-7.15527,4.42236L59.05591,368H48a7.99952,7.99952,0,0,0-6.40039,3.2002l-24,32A8.00222,8.00222,0,0,0,16,408v40A8.00008,8.00008,0,0,0,24,456Zm40-8a8,8,0,1,1,8-8A8.00917,8.00917,0,0,1,64,448Zm64,0a8,8,0,1,1,8-8A8.00917,8.00917,0,0,1,128,448Zm32-72h16v16h16V376h16v40H160Zm48,64H152a23.88212,23.88212,0,0,0-1.37622-8H208Zm0-80H160V320h16v16h16V320h16Zm-72-40h8v96h-8ZM84.94434,352H120v40H91.31348L73.73413,374.42017ZM32,410.6665,52,384h8.68652l21.65625,21.65674A8.00076,8.00076,0,0,0,88,408h32v9.37616A24.03813,24.03813,0,0,0,104,440H88a24,24,0,0,0-48,0H32Z"/><path d="M491.05859,144.60791l-232-96a7.9983,7.9983,0,0,0-6.11718,0l-232,96A7.99966,7.99966,0,0,0,16,152v24a8.00008,8.00008,0,0,0,8,8h8V352H48V208H464V440H448V336a8.00008,8.00008,0,0,0-8-8H248a8.00008,8.00008,0,0,0-8,8V448a8.00008,8.00008,0,0,0,8,8H472a8.00008,8.00008,0,0,0,8-8V184h8a8.00008,8.00008,0,0,0,8-8V152A7.99966,7.99966,0,0,0,491.05859,144.60791ZM432,384H384V344h16v16h16V344h16Zm-64,0H320V344h16v16h16V344h16ZM256,344h16v16h16V344h16v40H256Zm0,56h16v16h16V400h16v40H256Zm64,0h16v16h16V400h16v40H320Zm112,40H384V400h16v16h16V400h16Zm32-248H48v-8a7.99523,7.99523,0,0,0,3.11719-.63232L88,167.76343V176h16V160.9942l16-6.76922V176h16V147.45575l16-6.76923V176h16V133.9173l16-6.76923V176h16V120.37885l16-6.76923V176h16V106.84039l16-6.76922V176h16V100.07117l16,6.76922V176h16V113.60962l16,6.76923V176h16V127.14807l16,6.76923V176h16V140.68652l16,6.76923V176h16V154.225l16,6.76922V176h16v-8.23657l36.88281,15.60425A7.99523,7.99523,0,0,0,464,184Zm16-24h-14.377L259.11719,80.63232a8.0025,8.0025,0,0,0-6.23438,0L46.377,168H32V157.34766L256,64.65771l224,92.69Z"/><path d="M248,304V232a8.00008,8.00008,0,0,0-8-8H80a8.00008,8.00008,0,0,0-8,8v88H88V240H232v64Z"/><path d="M440,312V232a8.00008,8.00008,0,0,0-8-8H272a8.00008,8.00008,0,0,0-8,8v80h16V296H424v16ZM280,280V240H424v40Z"/><rect x="296" y="256" width="16" height="16"/><rect x="328" y="256" width="80" height="16"/><rect x="104" y="256" width="16" height="16"/><rect x="136" y="256" width="80" height="16"/></svg>
