<?xml version="1.0" standalone="no"?>
<!DOCTYPE svg PUBLIC "-//W3C//DTD SVG 20010904//EN"
 "http://www.w3.org/TR/2001/REC-SVG-20010904/DTD/svg10.dtd">
<svg version="1.0" xmlns="http://www.w3.org/2000/svg"
 width="512.000000pt" height="512.000000pt" viewBox="0 0 512.000000 512.000000"
 preserveAspectRatio="xMidYMid meet">
<metadata>
Created by potrace 1.16, written by Peter Selinger 2001-2019
</metadata>
<g transform="translate(0.000000,512.000000) scale(0.100000,-0.100000)"
fill="#000000" stroke="none">
<path d="M1822 4685 c-106 -23 -216 -102 -269 -192 -48 -83 -63 -153 -63 -299
l0 -134 -537 0 c-296 0 -564 -4 -596 -10 -156 -25 -286 -135 -336 -282 -20
-59 -21 -82 -21 -463 0 -348 2 -408 17 -451 32 -96 93 -174 178 -229 107 -68
52 -65 1047 -65 l898 0 0 70 c0 63 3 73 29 102 l29 33 362 0 362 0 29 -33 c26
-29 29 -39 29 -102 l0 -70 898 0 c812 0 903 2 948 17 96 32 174 93 229 178 64
100 65 107 65 550 0 381 -1 404 -21 463 -50 147 -180 257 -336 282 -32 6 -300
10 -595 10 l-538 0 0 134 c0 103 -4 148 -19 195 -48 155 -164 264 -317 296
-98 21 -1377 20 -1472 0z m1378 -525 l0 -100 -640 0 -640 0 0 100 0 100 640 0
640 0 0 -100z"/>
<path d="M55 2448 c-11 -6 -28 -20 -37 -32 -16 -19 -18 -79 -18 -832 0 -798 0
-811 21 -872 50 -147 180 -257 336 -282 78 -13 4328 -13 4406 0 156 25 286
135 336 282 21 61 21 74 21 872 0 753 -2 813 -18 832 -45 57 -91 57 -195 0
-48 -26 -107 -49 -141 -55 -40 -7 -349 -11 -923 -11 l-863 0 0 -170 c0 -187
-6 -214 -56 -240 -40 -22 -688 -22 -728 0 -50 26 -56 53 -56 240 l0 170 -863
0 c-574 0 -883 4 -923 11 -34 6 -93 29 -141 55 -82 44 -121 53 -158 32z"/>
</g>
</svg>
