<?xml version="1.0" standalone="no"?>
<!DOCTYPE svg PUBLIC "-//W3C//DTD SVG 20010904//EN"
 "http://www.w3.org/TR/2001/REC-SVG-20010904/DTD/svg10.dtd">
<svg version="1.0" xmlns="http://www.w3.org/2000/svg"
 width="512.000000pt" height="512.000000pt" viewBox="0 0 512.000000 512.000000"
 preserveAspectRatio="xMidYMid meet">
<metadata>
Created by potrace 1.16, written by Peter Selinger 2001-2019
</metadata>
<g transform="translate(0.000000,512.000000) scale(0.100000,-0.100000)"
fill="#000000" stroke="none">
<path d="M1819 5097 c-64 -34 -100 -97 -107 -187 l-5 -70 -116 0 c-136 0 -177
-14 -232 -78 l-35 -41 -394 -3 c-439 -3 -430 -2 -508 -73 -23 -20 -50 -55 -61
-79 l-21 -42 0 -2167 0 -2167 21 -45 c26 -56 95 -117 147 -133 29 -9 452 -12
1683 -12 1571 0 1646 1 1684 19 50 22 99 70 128 125 l22 41 3 893 3 892 -25
25 c-31 31 -74 32 -109 4 l-27 -20 -2 -879 -3 -880 -33 -32 -32 -33 -1578 -3
c-867 -2 -1597 0 -1621 3 -30 5 -54 16 -73 35 l-28 28 0 2134 c0 1956 1 2135
16 2157 34 48 58 51 439 51 l355 0 0 -70 0 -70 -262 0 c-145 0 -281 -5 -302
-10 -22 -5 -53 -23 -70 -40 l-31 -30 -3 -1971 c-2 -2178 -7 -2008 61 -2049 31
-20 62 -20 1484 -20 l1451 0 33 27 c61 52 59 25 59 810 l0 718 506 800 c279
440 515 818 525 840 44 95 15 240 -62 312 -47 43 -194 131 -243 144 -87 24
-200 -7 -263 -70 -17 -16 -128 -184 -247 -372 l-216 -342 0 563 c0 541 -1 565
-20 605 -38 78 -46 80 -372 83 l-288 3 0 70 0 70 373 -3 c408 -3 403 -2 432
-64 12 -27 15 -91 15 -376 0 -287 2 -347 15 -365 32 -45 113 -36 135 16 8 19
10 137 8 392 l-3 364 -31 55 c-37 66 -101 113 -174 129 -32 7 -192 11 -419 11
l-368 0 -24 37 c-13 20 -44 47 -68 60 -39 20 -58 23 -168 23 l-123 0 0 60 c0
97 -36 162 -112 201 -34 18 -62 19 -356 19 -315 0 -319 0 -363 -23z m641 -140
c23 -12 25 -19 30 -99 9 -150 47 -178 242 -178 102 0 130 -3 142 -16 13 -12
16 -39 16 -130 l0 -114 -710 0 -710 0 0 108 c0 154 -5 149 172 154 120 2 147
6 171 22 43 29 57 66 57 149 0 75 9 95 50 110 8 3 128 6 265 6 182 1 257 -3
275 -12z m1110 -1370 l0 -673 -386 -610 c-212 -335 -392 -621 -400 -636 -19
-37 -18 -61 7 -92 27 -35 86 -36 116 -3 12 12 256 393 543 847 287 454 525
829 530 833 7 8 90 -39 90 -50 0 -3 -1377 -2181 -1385 -2191 -6 -7 -88 24 -92
35 -2 6 30 65 71 131 87 136 96 175 50 211 -30 24 -72 27 -96 9 -27 -21 -160
-238 -189 -308 -15 -36 -58 -194 -95 -352 l-69 -288 -732 0 -733 0 0 1905 0
1905 1385 0 1385 0 0 -673z m927 163 c100 -61 123 -89 123 -144 0 -49 -71
-172 -93 -159 -45 27 -293 186 -297 189 -6 7 28 67 62 109 58 70 98 71 205 5z
m-205 -346 c84 -54 155 -98 157 -100 9 -8 -62 -103 -73 -97 -6 4 -58 37 -116
73 -58 37 -124 79 -147 93 l-42 27 31 50 c17 27 32 50 34 50 2 0 72 -43 156
-96z m7 -344 c-1 -13 -1395 -2204 -1404 -2206 -5 -1 -24 14 -41 34 l-31 37
694 1097 695 1096 44 -26 c24 -15 43 -29 43 -32z m-732 -2607 c-2 -2 -203 -2
-445 -1 l-442 3 126 100 c197 156 220 185 504 635 l255 405 3 -569 c1 -313 1
-571 -1 -573z m-976 415 c48 -16 136 -75 158 -107 l20 -27 -165 -132 c-90 -73
-164 -129 -164 -125 0 34 96 403 105 403 7 0 27 -5 46 -12z"/>
<path d="M1125 4023 c-44 -23 -65 -44 -86 -85 -18 -34 -19 -63 -19 -378 0
-321 1 -343 20 -380 11 -21 36 -51 57 -67 l36 -28 356 -3 c251 -2 363 1 383 9
40 16 95 81 107 126 14 51 14 635 0 686 -13 47 -63 106 -106 123 -25 11 -109
14 -375 14 -293 -1 -347 -3 -373 -17z m693 -155 c9 -9 12 -91 12 -309 0 -296
0 -298 -22 -313 -19 -14 -66 -16 -306 -16 -176 0 -291 4 -303 10 -18 10 -19
24 -19 319 0 169 3 311 7 314 3 4 144 7 313 7 225 0 309 -3 318 -12z"/>
<path d="M1623 3764 c-7 -3 -47 -52 -90 -110 l-77 -104 -42 45 c-31 34 -48 45
-71 45 -47 0 -78 -30 -78 -76 0 -32 11 -54 57 -116 63 -85 81 -98 130 -98 53
0 82 27 188 174 110 152 121 183 77 224 -22 21 -64 28 -94 16z"/>
<path d="M2244 3786 c-49 -22 -59 -74 -23 -120 l20 -26 504 0 504 0 20 26 c28
35 26 67 -3 101 l-24 28 -484 2 c-390 2 -489 0 -514 -11z"/>
<path d="M2221 3454 c-39 -49 -18 -114 41 -129 13 -3 134 -5 270 -3 225 3 248
5 267 22 28 26 29 88 1 116 -19 19 -33 20 -289 20 l-270 0 -20 -26z"/>
<path d="M1135 2826 c-42 -19 -84 -60 -101 -101 -20 -49 -21 -689 0 -738 17
-42 76 -93 123 -107 26 -8 147 -10 370 -8 l331 3 43 30 c82 58 84 67 87 425 3
339 -1 381 -45 439 -52 68 -68 71 -443 70 -257 0 -342 -3 -365 -13z m685 -165
c6 -12 10 -129 10 -310 0 -250 -2 -292 -16 -305 -13 -14 -56 -16 -313 -16
-218 0 -300 3 -309 12 -17 17 -17 609 0 626 9 9 93 12 315 12 289 0 303 -1
313 -19z"/>
<path d="M1623 2533 c-7 -2 -47 -52 -90 -109 l-76 -105 -42 46 c-32 34 -49 45
-72 45 -41 0 -72 -28 -79 -70 -5 -31 1 -44 55 -117 65 -88 83 -103 130 -103
64 0 70 6 238 239 61 84 68 123 30 159 -22 21 -64 28 -94 15z"/>
<path d="M2221 2564 c-26 -33 -27 -75 -2 -105 l19 -24 352 0 352 0 19 24 c26
32 25 82 -4 109 -23 22 -28 22 -369 22 l-347 0 -20 -26z"/>
<path d="M2225 2255 c-16 -15 -25 -36 -25 -55 0 -19 9 -40 25 -55 l24 -25 264
0 c263 0 264 0 285 23 32 34 30 89 -4 116 -25 20 -39 21 -286 21 l-259 0 -24
-25z"/>
<path d="M1185 1635 c-5 -2 -22 -6 -37 -9 -37 -8 -85 -51 -108 -97 -19 -36
-20 -60 -20 -379 0 -315 1 -344 19 -378 22 -42 43 -63 89 -86 29 -15 73 -16
386 -14 l354 3 39 31 c80 65 78 56 78 444 l0 345 -27 45 c-16 28 -43 55 -70
70 l-43 25 -325 2 c-179 1 -329 0 -335 -2z m627 -172 c17 -15 18 -38 18 -308
0 -217 -3 -296 -12 -308 -12 -16 -40 -17 -323 -15 l-310 3 -3 310 c-2 283 -1
311 15 323 12 9 91 12 307 12 255 0 292 -2 308 -17z"/>
<path d="M1587 1318 c-18 -24 -55 -73 -82 -111 l-49 -67 -39 45 c-32 37 -44
45 -73 45 -40 0 -84 -37 -84 -70 0 -28 13 -52 71 -131 49 -67 80 -89 125 -89
53 0 59 6 197 193 66 91 87 127 87 151 0 46 -32 76 -80 76 -34 0 -43 -6 -73
-42z"/>
</g>
</svg>
