<?xml version="1.0" standalone="no"?>
<!DOCTYPE svg PUBLIC "-//W3C//DTD SVG 20010904//EN"
 "http://www.w3.org/TR/2001/REC-SVG-20010904/DTD/svg10.dtd">
<svg version="1.0" xmlns="http://www.w3.org/2000/svg"
 width="512.000000pt" height="512.000000pt" viewBox="0 0 512.000000 512.000000"
 preserveAspectRatio="xMidYMid meet">
<metadata>
Created by potrace 1.16, written by Peter Selinger 2001-2019
</metadata>
<g transform="translate(0.000000,512.000000) scale(0.100000,-0.100000)"
fill="#000000" stroke="none">
<path d="M2423 5100 c-103 -41 -192 -151 -209 -257 l-7 -43 -204 0 c-315 0
-307 8 -311 -300 -4 -256 0 -291 38 -333 l28 -32 800 0 800 0 26 24 c40 38 46
79 45 311 0 235 -6 270 -52 304 -26 19 -45 21 -250 26 l-222 5 -6 46 c-14 95
-83 185 -181 236 -73 37 -217 44 -295 13z"/>
<path d="M871 4779 c-62 -12 -115 -50 -148 -106 l-28 -48 0 -2235 0 -2235 28
-48 c15 -26 47 -60 69 -75 l42 -27 1726 0 1726 0 42 27 c22 15 54 49 69 75
l28 48 3 2190 c2 1205 0 2214 -3 2242 -9 73 -55 140 -120 173 l-49 25 -364 3
c-200 2 -370 1 -377 -2 -11 -4 -11 -14 1 -58 10 -40 14 -123 14 -331 0 -303
-2 -316 -57 -353 -27 -18 -60 -19 -913 -19 -853 0 -886 1 -913 19 -55 37 -57
50 -57 353 0 205 4 292 14 330 8 28 11 54 8 57 -9 9 -693 5 -741 -5z m521
-451 l3 -263 28 -56 c35 -72 98 -131 171 -158 56 -21 62 -21 966 -21 904 0
910 0 966 21 73 27 136 86 171 158 l28 56 3 263 3 262 238 0 c171 0 240 -3
249 -12 17 -17 17 -4359 0 -4376 -17 -17 -3299 -17 -3316 0 -17 17 -17 4359 0
4376 9 9 78 12 249 12 l238 0 3 -262z"/>
</g>
</svg>
