<?xml version="1.0" standalone="no"?>
<!DOCTYPE svg PUBLIC "-//W3C//DTD SVG 20010904//EN"
 "http://www.w3.org/TR/2001/REC-SVG-20010904/DTD/svg10.dtd">
<svg version="1.0" xmlns="http://www.w3.org/2000/svg"
 width="512.000000pt" height="512.000000pt" viewBox="0 0 512.000000 512.000000"
 preserveAspectRatio="xMidYMid meet">
<metadata>
Created by potrace 1.16, written by Peter Selinger 2001-2019
</metadata>
<g transform="translate(0.000000,512.000000) scale(0.100000,-0.100000)"
fill="#000000" stroke="none">
<path d="M2158 5104 c-186 -33 -353 -119 -481 -248 l-34 -33 -74 20 c-56 15
-106 20 -204 20 -156 1 -241 -19 -377 -90 -184 -95 -350 -297 -398 -486 -6
-23 -13 -50 -16 -59 -5 -17 18 -18 375 -18 210 0 381 -3 381 -7 0 -5 23 -217
50 -473 28 -256 50 -467 50 -468 0 -8 109 12 170 30 70 22 174 72 228 110 l34
23 66 -32 c127 -62 208 -78 387 -78 177 0 230 10 365 68 87 38 170 91 239 153
l49 44 94 -31 c76 -26 114 -33 209 -37 67 -3 144 0 183 7 94 16 222 65 290
110 l58 38 67 -34 c192 -97 447 -98 643 -3 195 95 335 266 388 476 27 105 27
263 0 368 -54 212 -222 405 -425 489 -99 40 -162 52 -285 51 -122 0 -197 -15
-296 -59 l-54 -24 -63 43 c-84 59 -130 81 -234 112 -75 23 -107 27 -218 28
-178 0 -307 -36 -447 -125 l-47 -31 -28 20 c-161 113 -428 166 -645 126z"/>
<path d="M306 3888 c-3 -18 -10 -100 -16 -183 -6 -82 -13 -171 -16 -197 l-6
-48 425 0 426 0 -5 33 c-6 43 -44 403 -44 416 0 8 -117 11 -380 11 l-379 0 -5
-32z"/>
<path d="M246 3138 c-7 -45 -246 -3065 -246 -3105 l0 -33 743 0 744 0 -4 28
c-2 15 -75 704 -163 1532 -88 828 -163 1529 -166 1558 l-6 52 -449 0 -448 0
-5 -32z"/>
<path d="M1891 2606 c-270 -328 -341 -420 -341 -443 0 -15 22 -237 50 -493 27
-256 50 -466 50 -467 0 -2 104 -3 230 -3 l230 0 0 -145 0 -145 -216 0 -216 0
6 -37 c3 -21 24 -211 46 -423 22 -212 42 -400 45 -417 l6 -33 1669 0 1670 0 0
1510 0 1510 -207 0 -208 -1 -395 -479 -395 -479 -3 480 -2 479 -209 0 -209 0
-421 -506 -421 -507 0 507 0 506 -209 0 -209 0 -341 -414z m1119 -1551 l0
-145 -295 0 -295 0 0 145 0 145 295 0 295 0 0 -145z m900 0 l0 -145 -295 0
-295 0 0 145 0 145 295 0 295 0 0 -145z m900 0 l0 -145 -295 0 -295 0 0 145 0
145 295 0 295 0 0 -145z"/>
</g>
</svg>
