<?xml version="1.0" standalone="no"?>
<!DOCTYPE svg PUBLIC "-//W3C//DTD SVG 20010904//EN"
 "http://www.w3.org/TR/2001/REC-SVG-20010904/DTD/svg10.dtd">
<svg version="1.0" xmlns="http://www.w3.org/2000/svg"
 width="512.000000pt" height="512.000000pt" viewBox="0 0 512.000000 512.000000"
 preserveAspectRatio="xMidYMid meet">
<metadata>
Created by potrace 1.16, written by Peter Selinger 2001-2019
</metadata>
<g transform="translate(0.000000,512.000000) scale(0.100000,-0.100000)"
fill="#000000" stroke="none">
<path d="M1424 5104 c-16 -8 -238 -223 -491 -477 -395 -396 -462 -467 -468
-498 -9 -49 15 -103 57 -129 32 -19 49 -20 463 -20 l430 0 50 24 c54 25 100
71 122 123 10 26 13 126 13 473 0 489 2 478 -67 506 -41 18 -70 17 -109 -2z"/>
<path d="M1759 4696 c4 -473 -3 -558 -47 -645 -39 -78 -109 -146 -189 -184
l-68 -32 -497 -3 -498 -3 0 -1503 c0 -1311 2 -1509 15 -1553 20 -68 88 -143
157 -174 l53 -24 1580 0 1580 0 57 28 c64 32 111 80 142 146 l21 46 0 2055 0
2055 -21 45 c-29 62 -67 105 -123 138 l-46 27 -1060 3 -1060 2 4 -424z m1611
-1509 c72 -48 87 -120 38 -182 -45 -57 -2 -55 -1089 -55 -903 0 -1004 2 -1035
16 -98 47 -104 168 -11 224 31 19 59 20 1048 20 l1016 0 33 -23z m-46 -704
c48 -8 103 -60 111 -107 9 -45 -17 -100 -60 -126 -32 -20 -47 -20 -1050 -20
-1143 0 -1066 -5 -1105 74 -14 30 -18 52 -14 75 9 41 64 98 101 104 46 7 1975
7 2017 0z m-938 -702 c30 -18 64 -74 64 -105 0 -35 -30 -86 -62 -106 -32 -19
-49 -20 -563 -20 -485 0 -533 1 -555 17 -64 44 -80 96 -50 157 38 79 9 75 605
76 501 0 532 -1 561 -19z"/>
<path d="M4220 2704 c0 -1125 -4 -1872 -10 -1907 -26 -160 -138 -292 -297
-351 l-58 -21 -1404 -3 -1404 -3 5 -102 c7 -152 45 -224 148 -285 l45 -27
1598 -3 1598 -2 50 21 c66 29 134 105 154 172 13 44 15 299 15 2077 0 2272 6
2087 -75 2178 -63 70 -120 92 -256 99 l-109 6 0 -1849z"/>
</g>
</svg>
