<?xml version="1.0" standalone="no"?>
<!DOCTYPE svg PUBLIC "-//W3C//DTD SVG 20010904//EN"
 "http://www.w3.org/TR/2001/REC-SVG-20010904/DTD/svg10.dtd">
<svg version="1.0" xmlns="http://www.w3.org/2000/svg"
 width="512.000000pt" height="512.000000pt" viewBox="0 0 512.000000 512.000000"
 preserveAspectRatio="xMidYMid meet">
<metadata>
Created by potrace 1.16, written by Peter Selinger 2001-2019
</metadata>
<g transform="translate(0.000000,512.000000) scale(0.100000,-0.100000)"
fill="#000000" stroke="none">
<path d="M860 4576 c-153 -34 -288 -171 -314 -318 l-7 -38 706 0 c778 0 745 3
814 -63 18 -18 103 -114 188 -214 l154 -183 922 0 c900 0 924 -1 997 -21 100
-27 194 -84 267 -162 77 -83 118 -155 143 -253 19 -75 20 -113 20 -1166 l0
-1089 38 6 c20 4 69 22 109 41 85 41 142 99 187 194 l31 65 0 1225 0 1225 -31
65 c-55 116 -171 207 -294 230 -33 6 -404 10 -989 10 l-936 0 -165 197 c-91
108 -179 212 -196 230 l-31 33 -779 -1 c-575 0 -793 -4 -834 -13z"/>
<path d="M267 4026 c-115 -48 -183 -112 -234 -222 l-28 -59 -3 -1433 c-2
-1264 0 -1439 13 -1486 42 -144 169 -257 324 -286 74 -14 3828 -14 3902 0 155
30 282 142 324 286 13 47 15 198 13 1256 l-3 1203 -32 67 c-41 88 -113 160
-201 201 l-67 32 -976 5 -976 5 -189 225 -190 225 -810 2 -809 3 -58 -24z"/>
</g>
</svg>
