<?xml version="1.0" standalone="no"?>
<!DOCTYPE svg PUBLIC "-//W3C//DTD SVG 20010904//EN"
 "http://www.w3.org/TR/2001/REC-SVG-20010904/DTD/svg10.dtd">
<svg version="1.0" xmlns="http://www.w3.org/2000/svg"
 width="512.000000pt" height="512.000000pt" viewBox="0 0 512.000000 512.000000"
 preserveAspectRatio="xMidYMid meet">
<metadata>
Created by potrace 1.16, written by Peter Selinger 2001-2019
</metadata>
<g transform="translate(0.000000,512.000000) scale(0.100000,-0.100000)"
fill="#000000" stroke="none">
<path d="M1367 4534 c-169 -36 -361 -145 -474 -267 -288 -313 -359 -772 -178
-1154 145 -306 417 -506 741 -544 400 -47 786 188 954 583 93 219 106 492 33
723 -109 347 -395 604 -737 664 -83 15 -258 12 -339 -5z"/>
<path d="M3520 4395 c-304 -68 -540 -301 -622 -615 -31 -119 -30 -329 1 -445
44 -165 125 -300 249 -416 95 -89 164 -132 274 -170 281 -96 579 -31 795 174
174 165 264 381 265 632 0 391 -228 711 -587 825 -91 29 -280 36 -375 15z"/>
<path d="M3400 2530 c-143 -25 -255 -62 -385 -127 -132 -65 -315 -194 -315
-221 0 -5 25 -29 56 -53 110 -84 283 -285 373 -432 150 -245 234 -499 266
-799 l6 -58 860 0 859 0 0 223 c0 144 -5 252 -15 307 -92 556 -506 1004 -1050
1138 -186 47 -464 56 -655 22z"/>
<path d="M1290 2246 c-616 -97 -1101 -536 -1249 -1131 -32 -130 -41 -215 -41
-384 l0 -161 1555 0 1555 0 0 139 c0 466 -157 840 -481 1145 -204 191 -450
319 -729 378 -123 26 -481 34 -610 14z"/>
</g>
</svg>
