<?xml version="1.0" standalone="no"?>
<!DOCTYPE svg PUBLIC "-//W3C//DTD SVG 20010904//EN"
 "http://www.w3.org/TR/2001/REC-SVG-20010904/DTD/svg10.dtd">
<svg version="1.0" xmlns="http://www.w3.org/2000/svg"
 width="512.000000pt" height="512.000000pt" viewBox="0 0 512.000000 512.000000"
 preserveAspectRatio="xMidYMid meet">
<metadata>
Created by potrace 1.16, written by Peter Selinger 2001-2019
</metadata>
<g transform="translate(0.000000,512.000000) scale(0.100000,-0.100000)"
fill="#000000" stroke="none">
<path d="M847 5105 c-88 -33 -173 -123 -196 -207 -9 -32 -11 -619 -9 -2358 l3
-2315 23 -47 c30 -60 90 -120 150 -150 l47 -23 1695 0 1695 0 47 23 c60 30
120 90 150 150 l23 47 3 1647 2 1647 -667 3 -668 3 -58 23 c-76 31 -148 103
-179 179 l-23 58 -3 668 -3 667 -997 -1 c-831 0 -1003 -3 -1035 -14z m1153
-658 c59 -39 73 -76 78 -203 l4 -113 32 -7 c89 -19 235 -105 267 -157 36 -59
21 -144 -33 -193 -58 -53 -129 -52 -210 4 -72 49 -135 65 -241 60 -75 -3 -102
-9 -147 -32 -102 -51 -150 -117 -150 -206 0 -87 48 -155 145 -203 57 -29 81
-34 220 -46 179 -16 319 -78 431 -190 164 -164 201 -390 97 -595 -57 -113
-233 -250 -364 -286 l-47 -12 -4 -112 c-3 -89 -8 -120 -24 -147 -62 -106 -206
-106 -268 0 -16 27 -21 58 -24 147 l-4 113 -32 7 c-89 19 -235 105 -267 157
-27 45 -25 115 4 157 58 86 138 99 230 37 84 -55 141 -70 250 -65 75 3 102 9
147 32 102 51 150 117 150 206 0 87 -48 155 -145 203 -57 29 -81 34 -220 46
-179 16 -319 78 -431 190 -164 164 -201 390 -97 595 57 113 233 250 364 286
l47 12 4 112 c3 89 8 120 24 147 30 50 78 79 134 79 32 0 58 -7 80 -23z m1750
-1593 c107 -63 107 -205 0 -268 -34 -20 -50 -21 -390 -21 -340 0 -356 1 -390
21 -126 73 -99 250 43 285 17 4 183 7 367 6 318 -2 337 -3 370 -23z m0 -640
c107 -63 107 -205 0 -268 -34 -20 -50 -21 -390 -21 -340 0 -356 1 -390 21
-126 73 -99 250 43 285 17 4 183 7 367 6 318 -2 337 -3 370 -23z m0 -640 c107
-63 107 -205 0 -268 -35 -21 -43 -21 -1190 -21 -1147 0 -1155 0 -1190 21 -126
73 -99 250 43 284 17 5 543 7 1167 7 1126 -2 1135 -2 1170 -23z m0 -640 c107
-63 107 -205 0 -268 -35 -21 -43 -21 -1190 -21 -1147 0 -1155 0 -1190 21 -126
73 -99 250 43 284 17 5 543 7 1167 7 1126 -2 1135 -2 1170 -23z"/>
<path d="M3200 4480 l0 -640 642 0 643 0 -640 640 c-352 352 -641 640 -642
640 -2 0 -3 -288 -3 -640z"/>
</g>
</svg>
