<?xml version="1.0" standalone="no"?>
<!DOCTYPE svg PUBLIC "-//W3C//DTD SVG 20010904//EN"
 "http://www.w3.org/TR/2001/REC-SVG-20010904/DTD/svg10.dtd">
<svg version="1.0" xmlns="http://www.w3.org/2000/svg"
 width="512.000000pt" height="512.000000pt" viewBox="0 0 512.000000 512.000000"
 preserveAspectRatio="xMidYMid meet">
<metadata>
Created by potrace 1.16, written by Peter Selinger 2001-2019
</metadata>
<g transform="translate(0.000000,512.000000) scale(0.100000,-0.100000)"
fill="#000000" stroke="none">
<path d="M2388 5097 c-165 -56 -299 -200 -343 -368 -24 -88 -19 -237 9 -323
25 -75 422 -814 459 -853 11 -13 32 -23 47 -23 15 0 36 10 47 23 37 39 434
778 459 853 28 86 33 235 9 323 -45 170 -187 320 -352 371 -94 29 -244 27
-335 -3z m317 -196 c218 -102 268 -386 97 -554 -103 -101 -252 -130 -377 -73
-180 82 -259 285 -178 457 85 180 280 252 458 170z"/>
<path d="M2485 4756 c-16 -8 -42 -26 -57 -42 -108 -116 -26 -304 131 -304 159
0 241 188 133 304 -51 54 -140 72 -207 42z"/>
<path d="M1580 2295 l0 -1245 315 0 315 0 0 445 0 445 350 0 350 0 0 -445 0
-445 315 0 315 0 0 1245 0 1245 -372 0 -373 -1 -37 -58 c-50 -82 -109 -116
-198 -116 -89 0 -148 34 -198 116 l-37 58 -372 1 -373 0 0 -1245z m800 620 l0
-85 -305 0 -305 0 0 85 0 85 305 0 305 0 0 -85z m970 0 l0 -85 -305 0 -305 0
0 85 0 85 305 0 305 0 0 -85z m-970 -355 l0 -80 -305 0 -305 0 0 80 0 80 305
0 305 0 0 -80z m970 0 l0 -80 -305 0 -305 0 0 80 0 80 305 0 305 0 0 -80z
m-970 -355 l0 -85 -305 0 -305 0 0 85 0 85 305 0 305 0 0 -85z m970 0 l0 -85
-305 0 -305 0 0 85 0 85 305 0 305 0 0 -85z"/>
<path d="M170 1500 l0 -1150 95 0 95 0 0 350 0 350 260 0 260 0 0 -350 0 -350
90 0 90 0 0 1150 0 1150 -445 0 -445 0 0 -1150z m350 885 l0 -85 -80 0 -80 0
0 85 0 85 80 0 80 0 0 -85z m360 0 l0 -85 -85 0 -85 0 0 85 0 85 85 0 85 0 0
-85z m-360 -355 l0 -80 -80 0 -80 0 0 80 0 80 80 0 80 0 0 -80z m360 0 l0 -80
-85 0 -85 0 0 80 0 80 85 0 85 0 0 -80z m-360 -355 l0 -85 -80 0 -80 0 0 85 0
85 80 0 80 0 0 -85z m360 0 l0 -85 -85 0 -85 0 0 85 0 85 85 0 85 0 0 -85z
m-360 -350 l0 -85 -80 0 -80 0 0 85 0 85 80 0 80 0 0 -85z m360 0 l0 -85 -85
0 -85 0 0 85 0 85 85 0 85 0 0 -85z"/>
<path d="M1230 1675 l0 -975 95 0 95 0 0 975 0 975 -95 0 -95 0 0 -975z"/>
<path d="M3700 1675 l0 -975 95 0 95 0 0 975 0 975 -95 0 -95 0 0 -975z"/>
<path d="M4060 1500 l0 -1150 90 0 90 0 0 350 0 350 260 0 260 0 0 -350 0
-350 95 0 95 0 0 1150 0 1150 -445 0 -445 0 0 -1150z m350 885 l0 -85 -85 0
-85 0 0 85 0 85 85 0 85 0 0 -85z m350 0 l0 -85 -80 0 -80 0 0 85 0 85 80 0
80 0 0 -85z m-350 -355 l0 -80 -85 0 -85 0 0 80 0 80 85 0 85 0 0 -80z m350 0
l0 -80 -80 0 -80 0 0 80 0 80 80 0 80 0 0 -80z m-350 -355 l0 -85 -85 0 -85 0
0 85 0 85 85 0 85 0 0 -85z m350 0 l0 -85 -80 0 -80 0 0 85 0 85 80 0 80 0 0
-85z m-350 -350 l0 -85 -85 0 -85 0 0 85 0 85 85 0 85 0 0 -85z m350 0 l0 -85
-80 0 -80 0 0 85 0 85 80 0 80 0 0 -85z"/>
<path d="M2380 1410 l0 -360 180 0 180 0 0 360 0 360 -180 0 -180 0 0 -360z"/>
<path d="M520 620 l0 -270 95 0 95 0 0 270 0 270 -95 0 -95 0 0 -270z"/>
<path d="M1580 795 l0 -95 980 0 980 0 0 95 0 95 -980 0 -980 0 0 -95z"/>
<path d="M4410 620 l0 -270 95 0 95 0 0 270 0 270 -95 0 -95 0 0 -270z"/>
<path d="M1230 440 l0 -90 1330 0 1330 0 0 90 0 90 -1330 0 -1330 0 0 -90z"/>
<path d="M0 90 l0 -90 2560 0 2560 0 0 90 0 90 -2560 0 -2560 0 0 -90z"/>
</g>
</svg>
