<?xml version="1.0" standalone="no"?>
<!DOCTYPE svg PUBLIC "-//W3C//DTD SVG 20010904//EN"
 "http://www.w3.org/TR/2001/REC-SVG-20010904/DTD/svg10.dtd">
<svg version="1.0" xmlns="http://www.w3.org/2000/svg"
 width="512.000000pt" height="512.000000pt" viewBox="0 0 512.000000 512.000000"
 preserveAspectRatio="xMidYMid meet">
<metadata>
Created by potrace 1.16, written by Peter Selinger 2001-2019
</metadata>
<g transform="translate(0.000000,512.000000) scale(0.100000,-0.100000)"
fill="#000000" stroke="none">
<path d="M0 2560 l0 -2560 1839 0 1839 0 -42 63 c-24 35 -57 97 -74 138 -59
143 -62 177 -62 724 0 272 -4 495 -9 495 -4 0 -286 -165 -626 -366 -339 -201
-619 -363 -622 -361 -2 3 19 299 48 659 l52 653 573 935 574 934 0 623 0 623
-1745 0 -1745 0 0 -2560z m1163 1872 c84 -39 150 -105 190 -190 28 -60 32 -77
32 -157 0 -82 -3 -97 -32 -155 -56 -113 -143 -185 -263 -216 -76 -19 -142 -14
-227 18 -81 30 -181 130 -211 211 -58 153 -24 307 91 419 112 109 278 137 420
70z m1297 -1447 l0 -145 -1000 0 -1000 0 0 145 0 145 1000 0 1000 0 0 -145z
m-540 -625 l0 -150 -730 0 -730 0 0 150 0 150 730 0 730 0 0 -150z m0 -625 l0
-145 -730 0 -730 0 0 145 0 145 730 0 730 0 0 -145z m0 -650 l0 -145 -730 0
-730 0 0 145 0 145 730 0 730 0 0 -145z"/>
<path d="M4690 5111 c-50 -16 -106 -50 -142 -88 -47 -49 -282 -433 -271 -443
16 -15 538 -333 554 -337 11 -3 48 48 134 188 147 239 158 267 153 379 -7 132
-64 222 -180 280 -54 26 -71 30 -142 29 -45 0 -92 -4 -106 -8z"/>
<path d="M4102 4318 c-8 -11 -1402 -2277 -1455 -2366 -16 -28 -24 -87 -48
-384 -16 -193 -27 -353 -25 -355 2 -3 145 76 317 175 l312 178 743 1209 c409
665 742 1210 741 1211 -10 10 -562 344 -568 344 -3 0 -11 -6 -17 -12z"/>
<path d="M3790 1157 c0 -608 2 -721 15 -772 47 -178 185 -317 369 -370 45 -13
84 -16 163 -13 97 4 108 7 189 47 148 73 251 205 283 359 7 36 11 285 11 757
l0 705 -515 0 -515 0 0 -713z"/>
</g>
</svg>
