<?xml version="1.0" standalone="no"?>
<!DOCTYPE svg PUBLIC "-//W3C//DTD SVG 20010904//EN"
 "http://www.w3.org/TR/2001/REC-SVG-20010904/DTD/svg10.dtd">
<svg version="1.0" xmlns="http://www.w3.org/2000/svg"
 width="512.000000pt" height="512.000000pt" viewBox="0 0 512.000000 512.000000"
 preserveAspectRatio="xMidYMid meet">
<metadata>
Created by potrace 1.16, written by Peter Selinger 2001-2019
</metadata>
<g transform="translate(0.000000,512.000000) scale(0.100000,-0.100000)"
fill="#000000" stroke="none">
<path d="M2193 5107 c-12 -7 -45 -38 -72 -68 -62 -69 -94 -85 -199 -98 -45 -6
-95 -17 -112 -26 -71 -37 -143 -141 -157 -230 l-6 -35 189 0 c169 0 192 -2
230 -20 40 -20 74 -66 74 -101 0 -8 -18 -69 -41 -136 -40 -122 -41 -123 -77
-132 -20 -6 -108 -28 -195 -50 -87 -21 -161 -42 -165 -45 -3 -4 3 -13 14 -20
10 -8 83 -63 162 -123 l143 -110 187 28 c103 16 190 29 194 29 5 0 52 88 105
195 l98 195 94 -195 c52 -107 97 -195 100 -195 3 0 92 -13 197 -28 l191 -28
163 125 c149 113 161 125 140 133 -13 5 -96 27 -184 49 -176 43 -206 53 -206
69 0 6 -34 103 -76 216 -123 333 -200 496 -271 575 l-35 39 -232 0 c-164 -1
-237 -4 -253 -13z"/>
<path d="M190 4150 c0 -26 75 -154 130 -224 66 -84 116 -125 200 -165 l55 -26
429 0 430 0 47 200 c27 110 48 206 48 213 1 9 -139 12 -669 12 -451 0 -670 -3
-670 -10z"/>
<path d="M3591 4148 c0 -7 21 -103 48 -213 l47 -200 430 0 429 0 55 26 c84 40
134 81 200 165 55 70 130 198 130 224 0 7 -219 10 -670 10 -530 0 -670 -3
-669 -12z"/>
<path d="M1595 4098 c-2 -7 -26 -104 -53 -216 -34 -142 -46 -205 -38 -211 6
-4 107 -66 225 -136 l214 -128 63 34 c78 42 237 157 232 168 -4 10 -623 501
-632 501 -4 0 -9 -6 -11 -12z"/>
<path d="M3210 3869 c-168 -132 -311 -247 -318 -253 -11 -11 -1 -22 55 -63 37
-28 103 -72 146 -98 l78 -47 62 38 c279 171 397 247 397 255 0 9 -62 260 -91
372 -5 20 -13 37 -17 37 -4 0 -144 -109 -312 -241z"/>
<path d="M2500 3793 c-130 -201 -370 -396 -627 -507 -207 -89 -501 -156 -688
-156 -34 0 -84 -3 -110 -7 l-48 -6 7 -236 c19 -670 75 -1090 192 -1451 47
-143 149 -348 225 -450 122 -166 196 -231 500 -445 304 -215 416 -312 567
-490 l42 -50 42 50 c151 178 263 275 567 490 304 214 378 279 500 445 76 102
178 307 225 450 117 361 173 781 192 1451 l7 236 -48 6 c-26 4 -76 7 -110 7
-187 0 -481 67 -688 156 -257 111 -497 306 -627 507 -30 47 -57 86 -60 86 -3
0 -30 -39 -60 -86z m153 -419 c272 -254 708 -443 1105 -480 40 -4 74 -10 76
-13 8 -13 -15 -436 -34 -621 -43 -428 -112 -715 -230 -955 -108 -220 -226
-343 -530 -555 -182 -126 -321 -233 -432 -331 l-48 -42 -47 42 c-112 98 -251
205 -433 331 -304 212 -422 335 -530 555 -118 240 -187 527 -230 955 -19 185
-42 608 -34 621 2 3 36 9 76 13 397 37 837 228 1103 480 50 47 92 85 93 86 2
0 45 -39 95 -86z"/>
<path d="M1925 2369 c-155 -23 -277 -140 -314 -300 -6 -24 -11 -86 -11 -138 0
-237 94 -375 289 -421 69 -16 218 -9 294 15 l57 19 0 103 c0 57 -1 103 -2 103
-2 0 -34 -11 -73 -25 -81 -28 -180 -33 -224 -10 -100 51 -133 235 -66 370 46
95 120 116 250 70 39 -14 73 -25 77 -25 3 0 20 35 36 78 17 42 33 84 37 93 4
12 -5 20 -37 32 -101 37 -216 51 -313 36z"/>
<path d="M2971 2308 c-11 -35 -72 -223 -135 -418 -64 -196 -116 -361 -116
-368 0 -9 35 -12 128 -12 l128 0 20 78 20 77 134 0 134 0 20 -77 21 -78 127 0
c71 0 128 3 129 8 0 4 -62 197 -138 429 l-138 423 -157 0 -156 0 -21 -62z
m218 -268 c17 -69 34 -135 37 -147 6 -22 4 -23 -76 -23 -62 0 -81 3 -77 13 2
6 20 76 38 154 19 78 37 139 40 135 3 -4 20 -63 38 -132z"/>
<path d="M2390 1935 l0 -425 120 0 120 0 0 425 0 425 -120 0 -120 0 0 -425z"/>
<path d="M610 3629 c0 -19 89 -138 159 -212 86 -91 175 -154 263 -184 65 -23
81 -24 172 -18 127 8 305 38 418 69 101 28 228 75 228 84 0 4 -92 67 -203 140
l-204 132 -416 0 c-302 0 -417 -3 -417 -11z"/>
<path d="M3473 3507 c-112 -72 -203 -135 -203 -138 0 -9 148 -63 240 -88 103
-28 285 -58 406 -66 91 -6 107 -5 172 18 88 30 177 93 263 184 70 74 159 193
159 212 0 8 -115 11 -417 11 l-418 0 -202 -133z"/>
</g>
</svg>
